<?xml version="1.0" encoding="UTF-8" standalone="no"?>
<!-- Created with Inkscape (http://www.inkscape.org/) -->

<svg
   width="175.34854mm"
   height="170.10625mm"
   viewBox="0 0 175.34854 170.10625"
   version="1.1"
   id="svg1"
   xml:space="preserve"
   xmlns="http://www.w3.org/2000/svg"
   xmlns:svg="http://www.w3.org/2000/svg"><defs
     id="defs1" /><g
     id="layer1"
     transform="translate(-20.675324,-63.440277)"><path
       style="fill:#008000"
       d="m 75.060604,233.40342 c -27.697871,-1.78617 -49.205559,-21.19589 -53.745213,-48.50264 -0.535295,-3.21989 -0.902867,-80.5429 -0.404441,-85.078858 0.568968,-5.177923 0.860956,-5.276349 15.652781,-5.276349 17.110699,0 15.606572,-2.146607 15.608884,22.276147 0.0015,15.47407 -0.10142,10.94924 -0.08946,12.80419 -3.199315,3.17185 -17.371509,20.07814 -17.371509,21.38973 0,0.85518 1.351478,-0.28934 6.806721,-5.76439 3.314063,-3.3261 7.690963,-7.6064 9.726444,-9.51178 3.700875,-3.46433 3.700875,-3.46433 3.884483,-8.78751 0.615633,-17.84848 6.469782,-30.177419 19.30809,-40.663182 20.364079,-16.63248 65.286196,-25.957371 105.530506,-21.905921 6.38684,0.642972 15.584,2.134567 16.05289,2.603457 0.0523,0.0523 -0.57018,0.78748 -1.38329,1.633731 -6.36675,6.626232 -12.73194,15.51885 -23.38639,32.672405 -20.78167,33.45829 -41.7384,42.97289 -75.984581,34.49789 -5.237605,-1.29617 -5.104094,-0.94594 -1.641821,-4.30679 10.750932,-10.43599 26.902802,-21.93099 53.402572,-38.005653 8.12763,-4.930195 13.43314,-8.341539 13.25315,-8.521529 -0.88675,-0.886748 -30.8886,11.337175 -44.51036,18.135252 -29.941812,14.94277 -58.321017,38.20895 -62.835252,51.51437 -1.060329,3.12525 -0.967629,24.2642 0.122409,27.91354 8.015292,26.83444 44.908075,26.28627 51.292643,-0.76212 0.18715,-0.79287 0.34474,-8.34852 0.44858,-21.5072 0.088,-11.15671 0.23354,-16.65413 0.32333,-16.7438 0.0898,-0.0897 1.90211,0.0196 4.02738,0.24275 8.76378,0.92033 16.87349,0.30675 24.43846,-1.84902 1.776,-0.50611 3.35358,-0.92019 3.50573,-0.92019 0.37453,0 0.37232,37.05864 -0.002,41.40729 -2.70829,31.42607 -29.10914,53.13918 -62.030298,51.01618 z"
       id="path1" /></g></svg>
